<?xml version="1.0"?>
<svg xmlns="http://www.w3.org/2000/svg" version="1.1" viewBox="0 0 135.46666 135.46666" height="135.46666mm" width="135.46666mm">
   <g transform="translate(-46.641052,-66.483927)" fill="#bd081c">
      <path d="m 69.968407,188.99406 c -4.097856,-0.34927 -7.673376,-2.98402 -9.27697,-6.836 -0.695064,-1.66965 -0.946244,-3.18544 -0.868926,-5.24388 0.124825,-3.32217 1.199899,-5.82668 3.463393,-8.06799 2.139719,-2.11877 4.747016,-3.14967 7.947565,-3.14238 3.081383,0.008 5.706601,1.04605 7.741786,3.06398 1.455043,1.44275 2.247374,2.72281 2.926316,4.72769 l 0.386622,1.14166 0.0031,-4.32648 0.0031,-4.32642 h 0.758182 0.758197 l 7.862168,9.91566 7.862165,9.91565 0.03332,-9.91565 0.03332,-9.91566 h 0.779925 0.77989 v 11.38536 11.38541 h -0.5631 -0.5631 l -8.057266,-10.16521 -8.057268,-10.16513 -0.03332,10.16513 -0.03332,10.16521 h -0.779789 -0.779915 l -0.0062,-4.39153 -0.0077,-4.39153 -0.294132,0.9759 c -0.590115,1.95798 -1.61841,3.60965 -3.168892,5.08991 -2.3461,2.23982 -5.376183,3.25221 -8.848184,2.9563 z m 2.240951,-1.40235 c 5.108406,-0.59045 8.646797,-4.77454 8.6519,-10.23076 0.0046,-4.8537 -3.0733,-8.96628 -7.504377,-10.02737 -1.172312,-0.28068 -3.343842,-0.27829 -4.530602,0.005 -2.729693,0.65166 -5.021831,2.50582 -6.303474,5.09913 -2.532349,5.12394 -0.631807,11.61177 4.124381,14.07915 1.391572,0.72193 2.485032,1.01976 4.32605,1.17838 0.107433,0.009 0.663605,-0.0374 1.236122,-0.10358 z M 46.641055,177.3696 v -11.38536 h 0.845768 0.845778 v 10.60464 10.60467 h 6.636051 6.636048 v 0.78073 0.78073 h -7.48183 -7.481815 z m 55.300405,-0.0171 v -11.4024 l 4.65175,0.0714 c 3.94627,0.0606 4.82959,0.11005 5.82449,0.32586 4.25768,0.92384 7.32411,3.60063 8.60198,7.50899 l 0.29783,0.91081 0.006,-4.40587 0.006,-4.40585 5.62762,0.0614 c 5.21693,0.057 5.70207,0.0816 6.64802,0.33742 3.01494,0.81582 4.95674,2.73864 5.27836,5.2267 0.0808,0.62411 0.11359,0.005 0.12575,-2.37622 l 0.0165,-3.22043 h 0.78072 0.7807 v 11.38535 11.38541 l -1.39876,-0.002 -1.39879,-0.002 -3.64333,-4.74714 -3.64329,-4.74718 -3.74091,-2.6e-4 -3.74091,-3.5e-4 v 4.74932 4.74939 h -0.84582 -0.84576 l -0.002,-4.39155 -0.002,-4.39151 -0.36756,1.0559 c -1.002,2.87831 -2.947,5.06349 -5.67948,6.38055 -2.28415,1.10096 -4.03872,1.34373 -9.72636,1.3455 l -3.61079,0.001 z m 37.0673,2.8471 c -0.0108,-4.59172 -0.0582,-7.19332 -0.12374,-6.6889 -0.32607,2.51355 -2.32242,4.45278 -5.37944,5.22543 -0.56671,0.14345 -1.05744,0.2875 -1.0905,0.32053 -0.0331,0.0331 0.31354,0.54674 0.77017,1.14151 3.46637,4.5149 5.7798,7.50701 5.80731,7.51103 0.0179,0.003 0.0251,-3.37673 0.016,-7.5096 z m -26.14089,6.61663 c 3.37421,-1.00746 5.83504,-3.4851 6.73312,-6.7793 0.17254,-0.63301 0.22945,-1.32044 0.22612,-2.73251 -0.005,-1.79189 -0.0261,-1.95027 -0.43768,-3.15237 -0.95962,-2.80303 -3.01831,-4.93846 -5.70587,-5.91852 -1.62314,-0.59194 -2.51935,-0.688 -6.41868,-0.688 H 103.633 v 9.835 9.835 l 4.13127,-0.0546 c 3.80502,-0.0503 4.20806,-0.0776 5.1036,-0.34478 z m 20.0736,-9.24303 c 1.91219,-0.48903 3.29566,-1.48384 3.9643,-2.85056 0.29442,-0.60171 0.36427,-0.94203 0.40416,-1.96803 0.0406,-1.04586 0.003,-1.36223 -0.24427,-2.01709 -0.36403,-0.9668 -1.3199,-1.96074 -2.35725,-2.45102 -1.43716,-0.67933 -1.98553,-0.73694 -7.03598,-0.73903 l -4.65176,-0.002 v 5.13973 5.13964 h 4.46828 c 3.99199,0 4.57319,-0.0269 5.45252,-0.25171 z m 8.68618,-0.20367 v -11.38536 h 0.75815 0.75822 l 7.86217,9.91566 7.86216,9.91565 0.0334,-9.91565 0.0334,-9.91566 h 0.77989 0.77989 v 10.10585 c 0,5.55827 0.0323,10.07365 0.0717,10.03429 0.0394,-0.0394 2.16605,-4.60168 4.72596,-10.13843 l 4.65435,-10.06678 0.77542,-0.038 0.77539,-0.038 5.12548,11.09808 c 2.81904,6.10391 5.20627,11.26179 5.30499,11.46201 l 0.17949,0.36386 -0.88184,-0.0386 -0.88187,-0.0386 -1.43248,-3.15535 -1.43248,-3.15544 h -6.78434 -6.78434 l -1.43517,3.15544 -1.4352,3.15535 -0.83132,0.0379 -0.83138,0.0379 -8.06148,-10.17049 -8.06152,-10.17048 -0.0334,10.16514 -0.0334,10.16521 h -0.77993 -0.77992 z m 35.13205,3.53258 c 0,-0.16201 -5.97971,-13.16137 -6.05422,-13.16137 -0.0822,0 -5.80836,12.40422 -5.99175,12.97937 -0.0685,0.21463 0.27498,0.22767 5.98668,0.22767 3.33258,0 6.05929,-0.0206 6.05929,-0.0457 z m -43.06931,-15.77846 c -8.77197,-0.60619 -16.76632,-2.92811 -23.22199,-6.74484 -0.55085,-0.32565 -1.02713,-0.59213 -1.05838,-0.59213 -0.0312,0 -0.53872,0.41643 -1.12768,0.9254 -2.91526,2.51916 -6.65549,4.37142 -10.838259,5.36745 -4.239649,1.00954 -9.776694,1.13493 -14.522928,0.3288 -7.578007,-1.28706 -14.030802,-5.19136 -18.500404,-11.1938 l -0.35252,-0.47341 5.697041,-5.37942 c 3.133373,-2.95869 6.038189,-5.70114 6.455134,-6.09431 l 0.758072,-0.71486 0.793823,0.90754 c 2.492083,2.84915 5.228046,4.78785 7.709158,5.46271 1.177769,0.32036 3.688032,0.39457 4.879446,0.14452 2.566763,-0.53927 4.597011,-2.35063 5.536907,-4.93996 0.815798,-2.24755 0.759042,-0.343 0.804318,-26.98678 L 96.7433,90.905981 h 9.95077 9.9508 v 2.344796 2.34475 l 0.68312,-0.399331 c 4.69605,-2.745236 9.70091,-4.055326 16.23231,-4.249043 8.43185,-0.250142 16.66103,1.439625 23.32256,4.78896 2.08685,1.049281 5.64927,3.325616 6.82953,4.364077 l 0.41999,0.36953 -4.88651,6.89629 c -2.68763,3.79293 -4.93449,6.91373 -4.99304,6.93506 -0.0586,0.0214 -0.62494,-0.30489 -1.25866,-0.72498 -4.62705,-3.06727 -10.02311,-5.19922 -15.07489,-5.95599 -2.05533,-0.30789 -5.22287,-0.31674 -6.571,-0.0183 -2.0866,0.46185 -3.74575,1.6584 -4.21689,3.04112 -0.3233,0.94879 -0.27524,2.5578 0.10036,3.35914 0.88413,1.8866 3.6172,3.20836 9.64667,4.66536 7.55945,1.82671 9.13755,2.24262 11.60576,3.05865 2.90527,0.96054 5.16468,1.88492 6.93614,2.83774 5.84989,3.14654 9.10157,7.1393 10.2879,12.63268 0.38755,1.79447 0.48774,5.74155 0.20102,7.91833 -0.97811,7.42609 -5.09769,13.09543 -12.03959,16.56895 -3.33536,1.66887 -7.07766,2.7176 -11.65638,3.26649 -1.1849,0.14221 -7.20519,0.26473 -8.52278,0.17367 z m 7.09147,-16.57763 c 2.07842,-0.36712 3.80246,-1.2673 4.57542,-2.38892 0.53779,-0.78036 0.69275,-1.33832 0.69366,-2.49763 0.001,-1.29035 -0.28396,-2.02626 -1.10098,-2.84331 -1.51212,-1.51215 -3.90698,-2.4028 -11.58486,-4.30847 -8.14201,-2.02089 -11.38935,-3.06184 -14.99616,-4.80712 l -1.72407,-0.83427 v 4.46237 c 0,2.45432 -0.0345,4.89571 -0.0767,5.42537 l -0.0767,0.96299 1.34534,0.86405 c 4.87904,3.13358 9.63343,4.9816 15.01519,5.83636 2.40558,0.38208 6.15089,0.44281 7.92985,0.12883 z M 73.775069,116.6954 c 0.106202,-0.35781 0.280504,-0.89802 0.38722,-1.20046 0.106663,-0.30246 0.194025,-0.63174 0.194025,-0.73172 0,-0.1002 -0.496687,-0.5464 -1.103754,-0.99206 l -1.103753,-0.81027 1.419972,-0.0368 1.41999,-0.0368 0.229342,-0.67896 c 0.126164,-0.37343 0.323933,-0.96378 0.439534,-1.31191 l 0.210162,-0.63299 0.421417,1.31189 0.421398,1.31191 1.457748,0.0368 1.457749,0.0368 -0.78071,0.54472 c -0.429394,0.29956 -0.952577,0.68621 -1.162632,0.85921 l -0.381919,0.31456 0.414438,1.2616 c 0.227958,0.6939 0.414454,1.29032 0.414454,1.32536 0,0.0351 -0.443133,-0.26396 -0.984758,-0.66451 -0.54161,-0.40051 -1.067438,-0.75997 -1.168515,-0.79875 -0.16415,-0.0631 -0.585765,0.19985 -1.974848,1.23124 l -0.419756,0.31166 z M 58.554546,100.5119 c 0.245203,-0.728127 0.431619,-1.333088 0.414268,-1.344416 -0.01739,-0.01077 -0.521231,-0.367071 -1.11972,-0.790582 l -1.088172,-0.770004 1.391511,-0.06511 1.391511,-0.06511 0.432435,-1.301193 c 0.23784,-0.715642 0.440134,-1.271889 0.449523,-1.236104 0.0092,0.03586 0.20626,0.621292 0.437461,1.301179 l 0.420385,1.236118 1.39162,0.06511 1.391617,0.06511 -1.101017,0.773544 c -0.605575,0.425451 -1.101034,0.809729 -1.101034,0.853918 0,0.04433 0.176274,0.601821 0.391722,1.23918 0.215433,0.63738 0.376464,1.19967 0.35782,1.24956 -0.01862,0.0499 -0.502312,-0.25344 -1.074845,-0.67403 -0.572518,-0.4206 -1.071479,-0.76697 -1.108796,-0.76972 -0.03732,-0.003 -0.476464,0.29324 -0.975889,0.65775 -1.446743,1.05599 -1.40574,1.07534 -0.9004,-0.4252 z m 30.533384,1.17778 c 0.153222,-0.39913 0.752496,-2.342685 0.752496,-2.440221 0,-0.05541 -0.483058,-0.447553 -1.073477,-0.871588 l -1.073482,-0.770973 1.372471,-0.03679 1.372453,-0.03678 0.437078,-1.329576 0.437088,-1.329591 0.444408,1.329407 0.444422,1.329406 1.373637,0.03694 1.373654,0.03694 -1.057758,0.761123 c -0.581768,0.418586 -1.057756,0.843098 -1.057756,0.943342 0,0.100352 0.170558,0.712621 0.379014,1.360881 l 0.379015,1.1786 -0.346479,-0.22281 c -0.190568,-0.12267 -0.683833,-0.47727 -1.096132,-0.78827 -0.412303,-0.31098 -0.787582,-0.56542 -0.833947,-0.56542 -0.0464,0 -0.382396,0.22236 -0.746732,0.49419 -1.277865,0.95327 -1.559596,1.12864 -1.479973,0.92115 z M 73.575604,86.439796 c 0,-0.0217 0.17566,-0.558987 0.390355,-1.194162 0.214695,-0.635143 0.388176,-1.246307 0.385499,-1.358111 -0.0031,-0.11205 -0.504126,-0.554646 -1.114326,-0.984007 l -1.109472,-0.780731 1.430179,-0.03679 1.430162,-0.03678 0.44393,-1.32953 0.443912,-1.329545 0.413778,1.329484 0.413764,1.329468 1.432113,0.03678 1.432129,0.03679 -1.053393,0.761415 c -0.579354,0.418755 -1.080962,0.833247 -1.114664,0.921102 -0.03363,0.08788 0.113743,0.680302 0.327484,1.316616 0.213819,0.636298 0.368701,1.176984 0.344188,1.201503 -0.02461,0.02463 -0.498563,-0.281125 -1.053407,-0.67924 -0.554842,-0.398116 -1.07752,-0.723845 -1.161524,-0.723845 -0.08388,0 -0.631516,0.350725 -1.216711,0.779392 -0.585197,0.428668 -1.063996,0.761693 -1.063996,0.740083 z" />
   </g>
</svg>
